<?xml version="1.0" encoding="UTF-8"?>
<svg width="224.663px" height="32.6496px" viewBox="0 0 224.663 32.6496" version="1.1" xmlns="http://www.w3.org/2000/svg" xmlns:xlink="http://www.w3.org/1999/xlink">
    <title>9CA31911-8AA3-44CC-AB5E-3FFE24F1980A</title>
    <g id="Page-1" stroke="none" stroke-width="1" fill="none" fill-rule="evenodd">
        <g id="App-logotypes" transform="translate(-86.200000, -343.520400)" fill-rule="nonzero">
            <g id="Group-3-Copy" transform="translate(66.000000, 330.000000)">
                <g id="DIS_SubmAdmin_Logo_2024_101" transform="translate(20.200000, 13.520400)">
                    <g id="Sign" transform="translate(0.000000, 1.679600)">
                        <path d="M29.8,0 C30.2418278,0 30.6,0.3581722 30.6,0.8 L30.6,22.8 C30.6,23.2418278 30.2418278,23.6 29.8,23.6 L7.8,23.6 C7.3581722,23.6 7,23.2418278 7,22.8 L7,0.8 C7,0.3581722 7.3581722,0 7.8,0 Z M29,1.6 L8.6,1.6 L8.6,22 L29,22 L29,1.6 Z M18.8,5 L25.8,12 L21.8,12 L21.8,18 L15.8,18 L15.8,12 L11.8,12 L18.8,5 Z" id="Square" fill="#FFFFFF"></path>
                        <path d="M3.8,8 C4.20784105,8 4.54440158,8.30518815 4.59376686,8.6996497 L4.6,8.8 L4.6,26 L21.8,26 C22.207841,26 22.5444016,26.3051881 22.5937669,26.6996497 L22.6,26.8 C22.6,27.207841 22.2948119,27.5444016 21.9003503,27.5937669 L21.8,27.6 L3.8,27.6 C3.39215895,27.6 3.05559842,27.2948119 3.00623314,26.9003503 L3,26.8 L3,8.8 C3,8.3581722 3.3581722,8 3.8,8 Z M0.8,15 C1.20784105,15 1.54440158,15.3051881 1.59376686,15.6996497 L1.6,15.8 L1.6,29 L14.8,29 C15.207841,29 15.5444016,29.3051881 15.5937669,29.6996497 L15.6,29.8 C15.6,30.207841 15.2948119,30.5444016 14.9003503,30.5937669 L14.8,30.6 L0.8,30.6 C0.392158954,30.6 0.055598419,30.2948119 0.00623313573,29.9003503 L0,29.8 L0,15.8 C0,15.3581722 0.3581722,15 0.8,15 Z" id="Angles" fill="#129EDA"></path>
                    </g>
                    <g id="ABS-Data-Import-Service" transform="translate(46.800000, 0.000000)" fill="#FFFFFF">
                        <path d="M0,14.4796 L3.5404,14.4796 C8.5436,14.4796 11.1512,11.4904 11.1512,7.42 C11.1512,3.392 8.6496,0.5088 3.6676,0.5088 L0,0.5088 L0,14.4796 Z M1.8868,12.8684 L1.8868,2.12 L3.5192,2.12 C7.3564,2.12 9.1584,4.2824 9.1584,7.3776 C9.1584,10.3668 7.6956,12.8684 3.5404,12.8684 L1.8868,12.8684 Z" id="Shape"></path>
                        <path d="M18.965695,14.4796 L20.576895,14.4796 C20.449695,13.9708 20.386095,13.0592 20.386095,11.342 L20.386095,7.6956 C20.386095,5.2788 18.944495,4.1976 16.676095,4.1976 C15.488895,4.1976 14.216895,4.4944 13.050895,5.194 L13.708095,6.4872 C14.428895,6.0632 15.298095,5.7028 16.442895,5.7028 C17.651295,5.7028 18.520495,6.3176 18.520495,7.738 L18.520495,8.268 L16.654895,8.3316 C15.637295,8.374 14.831695,8.5012 14.132095,8.8404 C13.114495,9.328 12.436095,10.2184 12.436095,11.554 C12.436095,13.4832 13.814095,14.6916 15.658495,14.6916 C16.909295,14.6916 17.884495,14.1192 18.647695,13.3984 L18.965695,14.4796 Z M18.520495,9.6036 L18.520495,12.0204 C18.075295,12.4656 17.248495,13.1652 16.082495,13.1652 C15.022495,13.1652 14.344095,12.4868 14.344095,11.448 C14.344095,10.8332 14.598495,10.3244 15.128495,10.0276 C15.552495,9.8156 16.082495,9.6884 16.888095,9.6672 L18.520495,9.6036 Z" id="Shape"></path>
                        <path d="M25.95659,14.6916 C26.95299,14.6916 27.94939,14.3736 28.60659,13.9072 L27.99179,12.614 C27.58899,12.8684 27.01659,13.144 26.38059,13.144 C25.72339,13.144 25.36299,12.7624 25.36299,11.872 L25.36299,5.9572 L27.86459,5.9572 L28.37339,4.452 L25.36299,4.452 L25.36299,1.5688 L23.49739,2.1624 L23.49739,4.452 L21.78019,4.452 L21.78019,5.9572 L23.49739,5.9572 L23.49739,12.2324 C23.49739,13.8012 24.40899,14.6916 25.95659,14.6916 Z" id="Path"></path>
                        <path d="M35.979085,14.4796 L37.590285,14.4796 C37.463085,13.9708 37.399485,13.0592 37.399485,11.342 L37.399485,7.6956 C37.399485,5.2788 35.957885,4.1976 33.689485,4.1976 C32.502285,4.1976 31.230285,4.4944 30.064285,5.194 L30.721485,6.4872 C31.442285,6.0632 32.311485,5.7028 33.456285,5.7028 C34.664685,5.7028 35.533885,6.3176 35.533885,7.738 L35.533885,8.268 L33.668285,8.3316 C32.650685,8.374 31.845085,8.5012 31.145485,8.8404 C30.127885,9.328 29.449485,10.2184 29.449485,11.554 C29.449485,13.4832 30.827485,14.6916 32.671885,14.6916 C33.922685,14.6916 34.897885,14.1192 35.661085,13.3984 L35.979085,14.4796 Z M35.533885,9.6036 L35.533885,12.0204 C35.088685,12.4656 34.261885,13.1652 33.095885,13.1652 C32.035885,13.1652 31.357485,12.4868 31.357485,11.448 C31.357485,10.8332 31.611885,10.3244 32.141885,10.0276 C32.565885,9.8156 33.095885,9.6884 33.901485,9.6672 L35.533885,9.6036 Z" id="Shape"></path>
                        <polygon id="Path" points="44.576075 14.4796 46.462875 14.4796 46.462875 0.5088 44.576075 0.5088"></polygon>
                        <path d="M49.25617,14.4796 L51.12177,14.4796 L51.12177,7.1868 C51.99097,6.4448 52.96617,5.8512 53.96257,5.8512 C55.34057,5.8512 55.63737,6.9324 55.63737,8.3316 L55.63737,14.4796 L57.50297,14.4796 L57.50297,7.7168 C57.50297,7.5472 57.48177,7.3564 57.48177,7.1868 C58.35097,6.4448 59.32617,5.8512 60.32257,5.8512 C61.70057,5.8512 61.99737,6.9324 61.99737,8.3104 L61.99737,14.4796 L63.86297,14.4796 L63.86297,7.7592 C63.86297,5.2152 62.44257,4.1976 60.78897,4.1976 C59.55937,4.1976 58.28737,4.8124 57.10017,5.8724 C56.61257,4.7488 55.65857,4.1976 54.49257,4.1976 C53.22057,4.1976 52.07577,4.8336 51.03697,5.6816 L50.82497,4.452 L49.25617,4.452 L49.25617,14.4796 Z" id="Path"></path>
                        <path d="M66.168665,19.504 L68.034265,19.504 L68.034265,14.3736 C68.521865,14.5644 69.115465,14.6916 69.730265,14.6916 C72.698265,14.6916 74.839465,12.614 74.839465,9.4128 C74.839465,6.148 72.952665,4.1976 69.624265,4.1976 C68.437065,4.1976 67.249865,4.4308 66.168665,4.8124 L66.168665,19.504 Z M68.034265,12.7412 L68.034265,5.9996 C68.543065,5.8512 69.009465,5.7664 69.560665,5.7664 C71.511065,5.7664 72.910265,6.9112 72.910265,9.3916 C72.910265,11.6388 71.786665,13.1016 69.645465,13.1016 C69.030665,13.1016 68.564265,12.9956 68.034265,12.7412 Z" id="Shape"></path>
                        <path d="M80.89756,14.6916 C83.78076,14.6916 85.66756,12.402 85.66756,9.4552 C85.66756,6.4872 83.75956,4.1976 80.91876,4.1976 C78.03556,4.1976 76.14876,6.4872 76.14876,9.4552 C76.14876,12.402 78.03556,14.6916 80.89756,14.6916 Z M80.89756,13.144 C79.13796,13.144 78.07796,11.5964 78.07796,9.4552 C78.07796,7.2928 79.13796,5.7452 80.91876,5.7452 C82.67836,5.7452 83.73836,7.2928 83.73836,9.4552 C83.73836,11.5964 82.67836,13.144 80.89756,13.144 Z" id="Shape"></path>
                        <path d="M87.485655,14.4796 L89.351255,14.4796 L89.351255,7.1868 C90.284055,6.2752 90.941255,5.8936 91.640855,5.8936 C91.980055,5.8936 92.298055,5.9784 92.616055,6.148 L93.273255,4.4944 C92.976455,4.3036 92.510055,4.1976 92.086055,4.1976 C91.153255,4.1976 90.326455,4.558 89.266455,5.6816 L89.054455,4.452 L87.485655,4.452 L87.485655,14.4796 Z" id="Path"></path>
                        <path d="M98.65055,14.6916 C99.64695,14.6916 100.64335,14.3736 101.30055,13.9072 L100.68575,12.614 C100.28295,12.8684 99.71055,13.144 99.07455,13.144 C98.41735,13.144 98.05695,12.7624 98.05695,11.872 L98.05695,5.9572 L100.55855,5.9572 L101.06735,4.452 L98.05695,4.452 L98.05695,1.5688 L96.19135,2.1624 L96.19135,4.452 L94.47415,4.452 L94.47415,5.9572 L96.19135,5.9572 L96.19135,12.2324 C96.19135,13.8012 97.10295,14.6916 98.65055,14.6916 Z" id="Path"></path>
                        <path d="M106.50554,13.5892 C107.41714,14.204 108.75274,14.6916 110.36394,14.6916 C113.07754,14.6916 115.00674,13.25 115.00674,10.8756 C115.00674,6.5084 108.87994,6.8264 108.87994,3.8584 C108.87994,2.4804 110.04594,1.9928 111.21194,1.9928 C112.27194,1.9928 113.35314,2.2684 114.30714,2.7772 L114.30714,1.06 C113.62874,0.7208 112.46274,0.3816 111.14834,0.3816 C108.45594,0.3816 106.90834,2.0352 106.90834,4.0492 C106.90834,8.2468 113.01394,7.8652 113.01394,11.024 C113.01394,12.5292 111.74194,13.0804 110.34274,13.0804 C109.07074,13.0804 108.01074,12.614 107.28994,12.1264 L106.50554,13.5892 Z" id="Path"></path>
                        <path d="M125.029235,9.8792 L125.029235,9.4128 C125.029235,6.2116 123.524035,4.1976 120.895235,4.1976 C118.330035,4.1976 116.655235,6.3388 116.655235,9.3916 C116.655235,12.2536 118.181635,14.6916 121.510035,14.6916 C122.654835,14.6916 123.863235,14.3736 124.796035,13.78 L124.223635,12.4868 C123.524035,12.8684 122.697235,13.1652 121.722035,13.1652 C119.750435,13.1652 118.584435,11.766 118.563235,9.8792 L125.029235,9.8792 Z M118.563235,8.48 C118.584435,6.9536 119.453635,5.6816 120.895235,5.6816 C122.400435,5.6816 123.078835,7.0808 123.100035,8.48 L118.563235,8.48 Z" id="Shape"></path>
                        <path d="M126.76853,14.4796 L128.63413,14.4796 L128.63413,7.1868 C129.56693,6.2752 130.22413,5.8936 130.92373,5.8936 C131.26293,5.8936 131.58093,5.9784 131.89893,6.148 L132.55613,4.4944 C132.25933,4.3036 131.79293,4.1976 131.36893,4.1976 C130.43613,4.1976 129.60933,4.558 128.54933,5.6816 L128.33733,4.452 L126.76853,4.452 L126.76853,14.4796 Z" id="Path"></path>
                        <polygon id="Path" points="137.467025 14.5432 138.972225 14.5432 142.894225 4.452 140.965025 4.452 138.272625 12.084 138.230225 12.084 135.453025 4.452 133.502625 4.452"></polygon>
                        <path d="M144.24592,14.4796 L146.11152,14.4796 L146.11152,4.452 L144.24592,4.452 L144.24592,14.4796 Z M145.17872,2.3956 C145.87832,2.3956 146.40832,1.8656 146.40832,1.1872 C146.40832,0.5088 145.89952,0 145.17872,0 C144.47912,0 143.99152,0.53 143.99152,1.1872 C143.99152,1.8656 144.47912,2.3956 145.17872,2.3956 Z" id="Shape"></path>
                        <path d="M152.975215,14.6916 C154.247215,14.6916 155.434415,14.2676 156.176415,13.7588 L155.625215,12.4444 C154.968015,12.8048 154.247215,13.144 153.229615,13.144 C151.300415,13.144 150.049615,11.8084 150.049615,9.4552 C150.049615,7.3352 151.300415,5.7452 153.356815,5.7452 C154.332015,5.7452 155.095215,6.0208 155.773615,6.466 L155.773615,4.8336 C155.180015,4.4944 154.289615,4.1976 153.208415,4.1976 C150.155615,4.1976 148.120415,6.572 148.120415,9.5612 C148.120415,12.402 149.837615,14.6916 152.975215,14.6916 Z" id="Path"></path>
                        <path d="M165.37211,9.8792 L165.37211,9.4128 C165.37211,6.2116 163.86691,4.1976 161.23811,4.1976 C158.67291,4.1976 156.99811,6.3388 156.99811,9.3916 C156.99811,12.2536 158.52451,14.6916 161.85291,14.6916 C162.99771,14.6916 164.20611,14.3736 165.13891,13.78 L164.56651,12.4868 C163.86691,12.8684 163.04011,13.1652 162.06491,13.1652 C160.09331,13.1652 158.92731,11.766 158.90611,9.8792 L165.37211,9.8792 Z M158.90611,8.48 C158.92731,6.9536 159.79651,5.6816 161.23811,5.6816 C162.74331,5.6816 163.42171,7.0808 163.44291,8.48 L158.90611,8.48 Z" id="Shape"></path>
                    </g>
                    <g id="Submission-Administrator" transform="translate(46.520000, 20.443600)" fill="#FFFFFF">
                        <path d="M0,11.322 C0.731,11.815 1.802,12.206 3.094,12.206 C5.27,12.206 6.817,11.05 6.817,9.146 C6.817,5.644 1.904,5.899 1.904,3.519 C1.904,2.414 2.839,2.023 3.774,2.023 C4.624,2.023 5.491,2.244 6.256,2.652 L6.256,1.275 C5.712,1.003 4.777,0.731 3.723,0.731 C1.564,0.731 0.323,2.057 0.323,3.672 C0.323,7.038 5.219,6.732 5.219,9.265 C5.219,10.472 4.199,10.914 3.077,10.914 C2.057,10.914 1.207,10.54 0.629,10.149 L0,11.322 Z" id="Path"></path>
                        <path d="M11.237,12.206 C12.291,12.206 13.175,11.747 13.855,11.135 L14.11,12.036 L15.436,12.036 C15.317,11.628 15.266,10.897 15.266,9.554 L15.266,3.995 L13.77,3.995 L13.77,9.894 C13.362,10.404 12.563,10.897 11.713,10.897 C11.05,10.897 10.625,10.625 10.421,10.064 C10.302,9.741 10.268,9.384 10.268,8.874 L10.268,3.995 L8.772,3.995 L8.772,9.146 C8.772,9.809 8.84,10.234 8.993,10.676 C9.418,11.866 10.455,12.206 11.237,12.206 Z" id="Path"></path>
                        <path d="M19.941,12.206 C22.559,12.206 24.497,10.574 24.497,7.786 C24.497,5.168 22.865,3.791 20.808,3.791 C20.094,3.791 19.584,3.944 19.091,4.131 L19.091,0 L17.595,0 L17.595,11.696 C18.122,11.985 18.938,12.206 19.941,12.206 Z M20.179,10.931 C19.856,10.931 19.465,10.88 19.091,10.744 L19.091,5.423 C19.346,5.304 19.805,5.066 20.587,5.066 C22.117,5.066 22.95,6.205 22.95,7.854 C22.95,9.724 21.828,10.931 20.179,10.931 Z" id="Shape"></path>
                        <path d="M26.197,12.036 L27.693,12.036 L27.693,6.188 C28.39,5.593 29.172,5.117 29.971,5.117 C31.076,5.117 31.314,5.984 31.314,7.106 L31.314,12.036 L32.81,12.036 L32.81,6.613 C32.81,6.477 32.793,6.324 32.793,6.188 C33.49,5.593 34.272,5.117 35.071,5.117 C36.176,5.117 36.414,5.984 36.414,7.089 L36.414,12.036 L37.91,12.036 L37.91,6.647 C37.91,4.607 36.771,3.791 35.445,3.791 C34.459,3.791 33.439,4.284 32.487,5.134 C32.096,4.233 31.331,3.791 30.396,3.791 C29.376,3.791 28.458,4.301 27.625,4.981 L27.455,3.995 L26.197,3.995 L26.197,12.036 Z" id="Path"></path>
                        <path d="M40.137,12.036 L41.633,12.036 L41.633,3.995 L40.137,3.995 L40.137,12.036 Z M40.885,2.346 C41.446,2.346 41.871,1.921 41.871,1.377 C41.871,0.833 41.463,0.425 40.885,0.425 C40.324,0.425 39.933,0.85 39.933,1.377 C39.933,1.921 40.324,2.346 40.885,2.346 Z" id="Shape"></path>
                        <path d="M43.248,11.492 C43.809,11.849 44.727,12.206 45.849,12.206 C47.515,12.206 48.909,11.458 48.909,9.809 C48.909,7.055 45.135,7.633 45.135,6.001 C45.135,5.236 45.798,5.015 46.546,5.015 C47.345,5.015 48.008,5.219 48.586,5.474 L48.586,4.182 C48.008,3.961 47.277,3.791 46.478,3.791 C44.659,3.791 43.656,4.794 43.656,6.069 C43.656,8.738 47.43,8.194 47.43,9.826 C47.43,10.659 46.699,10.982 45.798,10.982 C44.931,10.982 44.234,10.676 43.724,10.37 L43.248,11.492 Z" id="Path"></path>
                        <path d="M49.912,11.492 C50.473,11.849 51.391,12.206 52.513,12.206 C54.179,12.206 55.573,11.458 55.573,9.809 C55.573,7.055 51.799,7.633 51.799,6.001 C51.799,5.236 52.462,5.015 53.21,5.015 C54.009,5.015 54.672,5.219 55.25,5.474 L55.25,4.182 C54.672,3.961 53.941,3.791 53.142,3.791 C51.323,3.791 50.32,4.794 50.32,6.069 C50.32,8.738 54.094,8.194 54.094,9.826 C54.094,10.659 53.363,10.982 52.462,10.982 C51.595,10.982 50.898,10.676 50.388,10.37 L49.912,11.492 Z" id="Path"></path>
                        <path d="M57.358,12.036 L58.854,12.036 L58.854,3.995 L57.358,3.995 L57.358,12.036 Z M58.106,2.346 C58.667,2.346 59.092,1.921 59.092,1.377 C59.092,0.833 58.684,0.425 58.106,0.425 C57.545,0.425 57.154,0.85 57.154,1.377 C57.154,1.921 57.545,2.346 58.106,2.346 Z" id="Shape"></path>
                        <path d="M64.515,12.206 C66.827,12.206 68.34,10.37 68.34,8.007 C68.34,5.627 66.81,3.791 64.532,3.791 C62.22,3.791 60.707,5.627 60.707,8.007 C60.707,10.37 62.22,12.206 64.515,12.206 Z M64.515,10.965 C63.104,10.965 62.254,9.724 62.254,8.007 C62.254,6.273 63.104,5.032 64.532,5.032 C65.943,5.032 66.793,6.273 66.793,8.007 C66.793,9.724 65.943,10.965 64.515,10.965 Z" id="Shape"></path>
                        <path d="M70.04,12.036 L71.536,12.036 L71.536,6.205 C72.25,5.593 73.032,5.117 73.848,5.117 C74.953,5.117 75.225,6.001 75.225,7.14 L75.225,12.036 L76.721,12.036 L76.721,6.647 C76.721,4.539 75.548,3.791 74.273,3.791 C73.253,3.791 72.352,4.267 71.485,4.981 L71.298,3.995 L70.04,3.995 L70.04,12.036 Z" id="Path"></path>
                        <path d="M81.787,12.036 L83.385,12.036 L84.456,9.095 L88.808,9.095 L89.896,12.036 L91.528,12.036 L87.176,0.799 L86.054,0.799 L81.787,12.036 Z M84.915,7.854 L85.969,4.947 C86.309,3.995 86.496,3.468 86.615,3.06 L86.649,3.06 C86.785,3.468 86.955,3.978 87.278,4.93 L88.332,7.854 L84.915,7.854 Z" id="Shape"></path>
                        <path d="M96.747,12.206 C97.767,12.206 98.804,11.985 99.433,11.645 L99.433,0 L97.937,0 L97.937,3.944 C97.529,3.825 97.087,3.791 96.662,3.791 C94.282,3.791 92.429,5.525 92.429,8.109 C92.429,10.795 94.35,12.206 96.747,12.206 Z M96.781,10.931 C95.047,10.931 93.976,9.843 93.976,8.075 C93.976,6.137 95.217,5.049 96.764,5.049 C97.274,5.049 97.563,5.117 97.937,5.236 L97.937,10.744 C97.631,10.88 97.155,10.931 96.781,10.931 Z" id="Shape"></path>
                        <path d="M101.626,12.036 L103.122,12.036 L103.122,6.188 C103.819,5.593 104.601,5.117 105.4,5.117 C106.505,5.117 106.743,5.984 106.743,7.106 L106.743,12.036 L108.239,12.036 L108.239,6.613 C108.239,6.477 108.222,6.324 108.222,6.188 C108.919,5.593 109.701,5.117 110.5,5.117 C111.605,5.117 111.843,5.984 111.843,7.089 L111.843,12.036 L113.339,12.036 L113.339,6.647 C113.339,4.607 112.2,3.791 110.874,3.791 C109.888,3.791 108.868,4.284 107.916,5.134 C107.525,4.233 106.76,3.791 105.825,3.791 C104.805,3.791 103.887,4.301 103.054,4.981 L102.884,3.995 L101.626,3.995 L101.626,12.036 Z" id="Path"></path>
                        <path d="M115.566,12.036 L117.062,12.036 L117.062,3.995 L115.566,3.995 L115.566,12.036 Z M116.314,2.346 C116.875,2.346 117.3,1.921 117.3,1.377 C117.3,0.833 116.892,0.425 116.314,0.425 C115.753,0.425 115.362,0.85 115.362,1.377 C115.362,1.921 115.753,2.346 116.314,2.346 Z" id="Shape"></path>
                        <path d="M119.323,12.036 L120.819,12.036 L120.819,6.205 C121.533,5.593 122.315,5.117 123.131,5.117 C124.236,5.117 124.508,6.001 124.508,7.14 L124.508,12.036 L126.004,12.036 L126.004,6.647 C126.004,4.539 124.831,3.791 123.556,3.791 C122.536,3.791 121.635,4.267 120.768,4.981 L120.581,3.995 L119.323,3.995 L119.323,12.036 Z" id="Path"></path>
                        <path d="M128.231,12.036 L129.727,12.036 L129.727,3.995 L128.231,3.995 L128.231,12.036 Z M128.979,2.346 C129.54,2.346 129.965,1.921 129.965,1.377 C129.965,0.833 129.557,0.425 128.979,0.425 C128.418,0.425 128.027,0.85 128.027,1.377 C128.027,1.921 128.418,2.346 128.979,2.346 Z" id="Shape"></path>
                        <path d="M131.342,11.492 C131.903,11.849 132.821,12.206 133.943,12.206 C135.609,12.206 137.003,11.458 137.003,9.809 C137.003,7.055 133.229,7.633 133.229,6.001 C133.229,5.236 133.892,5.015 134.64,5.015 C135.439,5.015 136.102,5.219 136.68,5.474 L136.68,4.182 C136.102,3.961 135.371,3.791 134.572,3.791 C132.753,3.791 131.75,4.794 131.75,6.069 C131.75,8.738 135.524,8.194 135.524,9.826 C135.524,10.659 134.793,10.982 133.892,10.982 C133.025,10.982 132.328,10.676 131.818,10.37 L131.342,11.492 Z" id="Path"></path>
                        <path d="M141.287,12.206 C142.086,12.206 142.885,11.951 143.412,11.577 L142.919,10.54 C142.596,10.744 142.137,10.965 141.627,10.965 C141.1,10.965 140.811,10.659 140.811,9.945 L140.811,5.202 L142.817,5.202 L143.225,3.995 L140.811,3.995 L140.811,1.683 L139.315,2.159 L139.315,3.995 L137.938,3.995 L137.938,5.202 L139.315,5.202 L139.315,10.234 C139.315,11.492 140.046,12.206 141.287,12.206 Z" id="Path"></path>
                        <path d="M144.772,12.036 L146.268,12.036 L146.268,6.188 C147.016,5.457 147.543,5.151 148.104,5.151 C148.376,5.151 148.631,5.219 148.886,5.355 L149.413,4.029 C149.175,3.876 148.801,3.791 148.461,3.791 C147.713,3.791 147.05,4.08 146.2,4.981 L146.03,3.995 L144.772,3.995 L144.772,12.036 Z" id="Path"></path>
                        <path d="M155.244,12.036 L156.536,12.036 C156.434,11.628 156.383,10.897 156.383,9.52 L156.383,6.596 C156.383,4.658 155.227,3.791 153.408,3.791 C152.456,3.791 151.436,4.029 150.501,4.59 L151.028,5.627 C151.606,5.287 152.303,4.998 153.221,4.998 C154.19,4.998 154.887,5.491 154.887,6.63 L154.887,7.055 L153.391,7.106 C152.575,7.14 151.929,7.242 151.368,7.514 C150.552,7.905 150.008,8.619 150.008,9.69 C150.008,11.237 151.113,12.206 152.592,12.206 C153.595,12.206 154.377,11.747 154.989,11.169 L155.244,12.036 Z M154.887,8.126 L154.887,10.064 C154.53,10.421 153.867,10.982 152.932,10.982 C152.082,10.982 151.538,10.438 151.538,9.605 C151.538,9.112 151.742,8.704 152.167,8.466 C152.507,8.296 152.932,8.194 153.578,8.177 L154.887,8.126 Z" id="Shape"></path>
                        <path d="M161.092,12.206 C161.891,12.206 162.69,11.951 163.217,11.577 L162.724,10.54 C162.401,10.744 161.942,10.965 161.432,10.965 C160.905,10.965 160.616,10.659 160.616,9.945 L160.616,5.202 L162.622,5.202 L163.03,3.995 L160.616,3.995 L160.616,1.683 L159.12,2.159 L159.12,3.995 L157.743,3.995 L157.743,5.202 L159.12,5.202 L159.12,10.234 C159.12,11.492 159.851,12.206 161.092,12.206 Z" id="Path"></path>
                        <path d="M167.977,12.206 C170.289,12.206 171.802,10.37 171.802,8.007 C171.802,5.627 170.272,3.791 167.994,3.791 C165.682,3.791 164.169,5.627 164.169,8.007 C164.169,10.37 165.682,12.206 167.977,12.206 Z M167.977,10.965 C166.566,10.965 165.716,9.724 165.716,8.007 C165.716,6.273 166.566,5.032 167.994,5.032 C169.405,5.032 170.255,6.273 170.255,8.007 C170.255,9.724 169.405,10.965 167.977,10.965 Z" id="Shape"></path>
                        <path d="M173.502,12.036 L174.998,12.036 L174.998,6.188 C175.746,5.457 176.273,5.151 176.834,5.151 C177.106,5.151 177.361,5.219 177.616,5.355 L178.143,4.029 C177.905,3.876 177.531,3.791 177.191,3.791 C176.443,3.791 175.78,4.08 174.93,4.981 L174.76,3.995 L173.502,3.995 L173.502,12.036 Z" id="Path"></path>
                    </g>
                </g>
            </g>
        </g>
    </g>
</svg>