<svg width="16" height="16" viewBox="0 0 16 16" xmlns="http://www.w3.org/2000/svg">
    <path d="M13.169 4.571a1.834 1.834 0 0 0 1.828-1.828A1.834 1.834 0 0 0 13.17.914a1.834 1.834 0 0 0-1.829 1.829c0 1.006.823 1.828 1.829 1.828zm0 1.829a1.834 1.834 0 0 0-1.829 1.829c0 1.005.823 1.828 1.829 1.828a1.834 1.834 0 0 0 1.828-1.828A1.834 1.834 0 0 0 13.17 6.4zm0 5.486a1.834 1.834 0 0 0-1.829 1.828c0 1.006.823 1.829 1.829 1.829a1.834 1.834 0 0 0 1.828-1.829 1.834 1.834 0 0 0-1.828-1.828zM6.502 0c.45 0 .812.366.812.813v5.689a.812.812 0 0 1-.812.812H.812A.812.812 0 0 1 0 6.502V.812C0 .367.362 0 .813 0zM5.483 1.612 3.174 3.997 1.805 2.734l-.868.94 2.288 2.112 3.178-3.284-.92-.89zm1.019 7.074c.45 0 .812.365.812.812v5.69a.812.812 0 0 1-.812.812H.812A.812.812 0 0 1 0 15.187V9.498c0-.447.362-.812.813-.812zm-1.019 1.612-2.309 2.385-1.369-1.263-.868.94 2.288 2.111 3.178-3.283-.92-.89z" fill="#135E82" fill-rule="nonzero"/>
</svg>
